<svg viewBox="0 0 220 320" xmlns="http://www.w3.org/2000/svg" role="img" aria-label="Placeholder scanned grocery receipt image">
  <rect x="0" y="0" width="220" height="320" rx="10" fill="#FFFFFF" stroke="#E5E7EB" stroke-width="2"/>
  <rect x="20" y="22" width="180" height="12" rx="3" fill="#1F2937"/>
  <rect x="46" y="40" width="128" height="7" rx="3" fill="#9CA3AF"/>
  <rect x="20" y="62" width="180" height="1" fill="#E5E7EB"/>

  <g font-family="Manrope, sans-serif">
    <rect x="20" y="78" width="120" height="7" rx="3" fill="#374151"/>
    <rect x="164" y="78" width="36" height="7" rx="3" fill="#374151"/>

    <rect x="20" y="98" width="100" height="7" rx="3" fill="#166534"/>
    <rect x="164" y="98" width="36" height="7" rx="3" fill="#166534"/>
    <circle cx="150" cy="101" r="7" fill="#22C55E"/>

    <rect x="20" y="118" width="90" height="7" rx="3" fill="#374151"/>
    <rect x="164" y="118" width="36" height="7" rx="3" fill="#374151"/>

    <rect x="20" y="138" width="110" height="7" rx="3" fill="#166534"/>
    <rect x="164" y="138" width="36" height="7" rx="3" fill="#166534"/>
    <circle cx="150" cy="141" r="7" fill="#22C55E"/>

    <rect x="20" y="158" width="70" height="7" rx="3" fill="#374151"/>
    <rect x="164" y="158" width="36" height="7" rx="3" fill="#374151"/>

    <rect x="20" y="178" width="95" height="7" rx="3" fill="#166534"/>
    <rect x="164" y="178" width="36" height="7" rx="3" fill="#166534"/>
    <circle cx="150" cy="181" r="7" fill="#22C55E"/>
  </g>

  <rect x="20" y="204" width="180" height="1" fill="#E5E7EB"/>
  <rect x="20" y="220" width="60" height="10" rx="3" fill="#1F2937"/>
  <rect x="150" y="220" width="50" height="10" rx="3" fill="#1F2937"/>

  <rect x="20" y="248" width="180" height="1" stroke="#E5E7EB" stroke-dasharray="3 3"/>
  <g transform="translate(20,260)">
    <rect width="14" height="24" fill="#1F2937"/>
    <rect x="18" width="8" height="24" fill="#1F2937"/>
    <rect x="30" width="14" height="24" fill="#1F2937"/>
    <rect x="48" width="6" height="24" fill="#1F2937"/>
    <rect x="58" width="16" height="24" fill="#1F2937"/>
    <rect x="78" width="8" height="24" fill="#1F2937"/>
    <rect x="90" width="14" height="24" fill="#1F2937"/>
    <rect x="108" width="6" height="24" fill="#1F2937"/>
    <rect x="118" width="14" height="24" fill="#1F2937"/>
    <rect x="136" width="8" height="24" fill="#1F2937"/>
    <rect x="148" width="16" height="24" fill="#1F2937"/>
    <rect x="168" width="8" height="24" fill="#1F2937"/>
  </g>
</svg>
