<svg viewBox="0 0 400 340" xmlns="http://www.w3.org/2000/svg" role="img" aria-label="Illustration of gluten-free items being highlighted with checkmarks on a receipt">
  <defs>
    <linearGradient id="bgGrad2" x1="0" y1="0" x2="1" y2="1">
      <stop offset="0" stop-color="#F8FAF8"/>
      <stop offset="1" stop-color="#DCFCE7"/>
    </linearGradient>
  </defs>
  <rect x="0" y="0" width="400" height="340" rx="28" fill="url(#bgGrad2)"/>
  <g transform="translate(125,55)">
    <rect x="0" y="0" width="150" height="230" rx="6" fill="#FFFFFF" stroke="#E5E7EB" stroke-width="2"/>
    <rect x="16" y="18" width="118" height="10" rx="3" fill="#1F2937"/>

    <g transform="translate(16,44)">
      <rect width="118" height="26" rx="6" fill="#DCFCE7"/>
      <rect x="8" y="9" width="70" height="7" rx="3" fill="#166534"/>
      <circle cx="104" cy="13" r="9" fill="#22C55E"/>
      <path d="M100 13 l3 3 l6 -6" stroke="#fff" stroke-width="2" fill="none" stroke-linecap="round" stroke-linejoin="round"/>
    </g>

    <g transform="translate(16,80)">
      <rect width="118" height="26" rx="6" fill="#F8FAF8"/>
      <rect x="8" y="9" width="60" height="7" rx="3" fill="#9CA3AF"/>
    </g>

    <g transform="translate(16,116)">
      <rect width="118" height="26" rx="6" fill="#DCFCE7"/>
      <rect x="8" y="9" width="78" height="7" rx="3" fill="#166534"/>
      <circle cx="104" cy="13" r="9" fill="#22C55E"/>
      <path d="M100 13 l3 3 l6 -6" stroke="#fff" stroke-width="2" fill="none" stroke-linecap="round" stroke-linejoin="round"/>
    </g>

    <g transform="translate(16,152)">
      <rect width="118" height="26" rx="6" fill="#FEF3F2"/>
      <rect x="8" y="9" width="50" height="7" rx="3" fill="#B91C1C"/>
      <circle cx="104" cy="13" r="9" fill="#F87171"/>
      <path d="M100 9 l8 8 M108 9 l-8 8" stroke="#fff" stroke-width="2" stroke-linecap="round"/>
    </g>

    <rect x="16" y="196" width="118" height="1" fill="#E5E7EB"/>
    <rect x="16" y="208" width="55" height="8" rx="3" fill="#1F2937"/>
  </g>
  <!-- magnifier -->
  <g transform="translate(255,60)">
    <circle cx="20" cy="20" r="20" fill="none" stroke="#22C55E" stroke-width="6"/>
    <line x1="34" y1="34" x2="52" y2="52" stroke="#22C55E" stroke-width="7" stroke-linecap="round"/>
  </g>
</svg>
